<svg xmlns="http://www.w3.org/2000/svg" width="611" height="195" fill="none"><style><![CDATA[.B{stroke:#0d0b0b}.C{stroke-width:2}.D{fill:#0d0b0b}.E{fill-rule:evenodd}]]></style><rect x="1" y="21" width="609" height="173" rx="19" class="B C"/><path d="M247.386 9.995h-3.657v2.476h4.292V14h-6.196V4.758h6.183V6.3h-4.28v2.203h3.657v1.492zm5.567 2.107c0-.224-.112-.4-.336-.527s-.575-.248-1.066-.35c-1.634-.343-2.45-1.037-2.45-2.082 0-.61.252-1.117.756-1.523s1.17-.616 1.987-.616c.87 0 1.568.205 2.088.616s.787.944.787 1.6h-1.834c0-.262-.085-.478-.254-.647s-.434-.26-.794-.26c-.31 0-.548.07-.717.21a.66.66 0 0 0-.254.533c0 .203.095.368.286.495s.52.23.977.324.842.2 1.156.305c.97.356 1.453.97 1.453 1.847 0 .626-.27 1.134-.806 1.523s-1.23.578-2.082.578c-.576 0-1.088-.102-1.536-.305s-.794-.49-1.048-.844a1.98 1.98 0 0 1-.38-1.162h1.74c.017.326.137.575.362.75s.524.26.9.26c.35 0 .616-.066.794-.197s.272-.31.272-.527zm6.044.546c.34 0 .614-.093.825-.28s.322-.434.33-.743h1.72c-.004.466-.13.893-.38 1.282s-.593.686-1.028.9-.9.317-1.435.317c-.982 0-1.756-.31-2.323-.933s-.85-1.49-.85-2.6v-.12c0-1.058.282-1.902.844-2.533s1.336-.946 2.317-.946c.86 0 1.547.245 2.063.736s.785 1.136.794 1.95h-1.72c-.01-.355-.12-.643-.33-.863s-.5-.336-.837-.336c-.428 0-.752.157-.972.47-.215.31-.323.813-.323 1.51v.2c0 .707.108 1.215.323 1.524s.544.463.984.463zm8-3.796a4.98 4.98 0 0 0-.66-.051c-.694 0-1.15.235-1.365.705V14h-1.834V7.132h1.733l.05.82c.368-.63.878-.946 1.53-.946a1.93 1.93 0 0 1 .572.083l-.026 1.765zM270.038 14h-1.84V7.132h1.84V14zm-1.95-8.646c0-.275.09-.5.273-.68s.438-.267.755-.267.563.09.75.267.28.404.28.68-.095.508-.285.686-.434.267-.743.267-.558-.09-.75-.267c-.186-.178-.28-.406-.28-.686zm5.88.09v1.688h1.174v1.346h-1.174v3.428c0 .254.048.436.146.546s.283.165.558.165c.203 0 .383-.015.54-.044v1.4a3.78 3.78 0 0 1-1.111.165c-1.287 0-1.942-.65-1.968-1.95v-3.7h-1.003V7.132h1.003V5.443h1.835zm1.936 5.06c0-.68.132-1.29.394-1.822s.64-.946 1.13-1.238 1.068-.438 1.72-.438c.927 0 1.682.284 2.266.85s.916 1.337.984 2.31l.013.47c0 1.054-.294 1.9-.882 2.54s-1.378.952-2.368.952-1.782-.317-2.374-.952-.883-1.498-.883-2.6v-.083zm1.835.133c0 .652.123 1.15.368 1.498s.597.514 1.054.514a1.22 1.22 0 0 0 1.041-.508c.25-.343.374-.89.374-1.638 0-.64-.124-1.134-.374-1.485s-.6-.527-1.054-.527-.795.176-1.04.527-.368.887-.368 1.62zm1.77-6.386h2l-1.758 1.968h-1.492l1.25-1.968zm8.107 4.602a4.99 4.99 0 0 0-.66-.051c-.694 0-1.15.235-1.365.705V14h-1.835V7.132h1.733l.05.82c.368-.63.878-.946 1.53-.946.203 0 .393.028.57.083l-.025 1.765zm3.04 5.148h-1.84V7.132h1.84V14zm-1.95-8.646c0-.275.09-.5.273-.68s.438-.267.756-.267.563.09.75.267.28.404.28.68-.095.508-.286.686-.433.267-.742.267-.56-.09-.75-.267-.28-.406-.28-.686zm3.397 5.148c0-.68.13-1.29.394-1.822s.64-.946 1.13-1.238 1.068-.438 1.72-.438c.927 0 1.682.284 2.266.85s.916 1.337.984 2.31l.013.47c0 1.054-.295 1.9-.883 2.54s-1.377.952-2.367.952-1.782-.317-2.374-.952-.883-1.498-.883-2.6v-.083zm1.835.133c0 .652.122 1.15.368 1.498s.597.514 1.054.514a1.22 1.22 0 0 0 1.041-.508c.25-.343.374-.89.374-1.638 0-.64-.125-1.134-.374-1.485s-.6-.527-1.054-.527-.796.176-1.04.527-.368.887-.368 1.62zm9.186-.12c0-1.07.24-1.923.718-2.558s1.14-.952 1.974-.952a2.1 2.1 0 0 1 1.657.749V4.25h1.84V14h-1.656l-.09-.73c-.457.57-1.045.857-1.765.857a2.34 2.34 0 0 1-1.949-.952c-.486-.64-.73-1.525-.73-2.66zm1.835.133c0 .643.112 1.136.336 1.48s.55.514.978.514c.567 0 .967-.24 1.2-.717v-2.7c-.23-.478-.625-.717-1.187-.717-.885 0-1.327.717-1.327 2.152zM314.935 14c-.085-.165-.146-.37-.184-.616-.444.495-1.022.743-1.733.743-.673 0-1.23-.195-1.676-.584a1.88 1.88 0 0 1-.66-1.473c0-.728.27-1.286.806-1.676s1.323-.586 2.342-.6h.845V9.41c0-.317-.083-.57-.248-.762s-.417-.286-.768-.286c-.31 0-.552.074-.73.222a.76.76 0 0 0-.26.609h-1.835a1.84 1.84 0 0 1 .369-1.104c.245-.34.592-.603 1.04-.793s.952-.292 1.5-.292c.847 0 1.517.214 2.013.64s.75 1.02.75 1.8v2.977c.004.652.095 1.145.272 1.48V14h-1.853zm-1.517-1.276c.27 0 .52-.06.75-.178a1.21 1.21 0 0 0 .508-.489v-1.18h-.686c-.918 0-1.407.317-1.466.952l-.006.108c0 .23.08.417.24.565s.38.222.66.222zm8.68 1.276V8.478h-1.022V7.132h1.022v-.584c0-.77.22-1.367.66-1.8s1.064-.64 1.86-.64c.254 0 .565.042.933.127l-.02 1.422a2.34 2.34 0 0 0-.559-.057c-.69 0-1.034.324-1.034.97v.552h1.364v1.346h-1.364V14h-1.84zm8.354 0c-.084-.165-.146-.37-.184-.616-.444.495-1.022.743-1.733.743-.673 0-1.23-.195-1.676-.584a1.88 1.88 0 0 1-.66-1.473c0-.728.27-1.286.806-1.676s1.323-.586 2.343-.6h.844V9.41c0-.317-.083-.57-.248-.762-.16-.2-.416-.286-.768-.286-.31 0-.552.074-.73.222a.76.76 0 0 0-.26.609h-1.834a1.84 1.84 0 0 1 .368-1.104c.245-.34.592-.603 1.04-.793s.952-.292 1.51-.292c.846 0 1.517.214 2.012.64s.75 1.02.75 1.8v2.977c.004.652.095 1.145.273 1.48V14h-1.854zm-1.517-1.276a1.6 1.6 0 0 0 .749-.178c.23-.123.398-.286.508-.49v-1.18h-.686c-.918 0-1.407.317-1.466.952l-.006.108c0 .23.08.417.24.565s.38.222.66.222zm6.83-.203h3.358V14h-5.7v-1.117l3.23-4.266h-3.136V7.132h5.503v1.085l-3.256 4.304zm7.783 1.606c-1.007 0-1.828-.31-2.463-.927-.63-.618-.946-1.44-.946-2.47v-.178c0-.7.134-1.305.4-1.847s.644-.965 1.13-1.257c.49-.296 1.05-.444 1.676-.444.94 0 1.678.296 2.215.89s.813 1.432.813 2.52v.75H342c.06.45.237.808.533 1.08.3.27.68.406 1.137.406.706 0 1.26-.256 1.656-.768l.902 1.01c-.275.39-.648.694-1.117.914a3.7 3.7 0 0 1-1.562.324zm-.21-5.637c-.364 0-.66.123-.89.368s-.368.597-.432 1.054h2.552v-.146c-.008-.406-.118-.72-.33-.94s-.512-.336-.9-.336zm5.986-1.358l.057.793c.49-.614 1.15-.92 1.975-.92.727 0 1.27.214 1.625.64s.537 1.066.545 1.917V14h-1.834V9.607c0-.39-.085-.67-.254-.844s-.45-.267-.844-.267a1.26 1.26 0 0 0-1.162.66V14H347.6V7.132h1.726zm5.53 3.383c0-1.07.24-1.923.717-2.558s1.14-.952 1.974-.952a2.1 2.1 0 0 1 1.657.749V4.25h1.84V14h-1.657l-.09-.73c-.457.57-1.045.857-1.764.857a2.34 2.34 0 0 1-1.949-.952c-.487-.64-.73-1.525-.73-2.66zm1.834.133c0 .643.113 1.136.337 1.48s.55.514.977.514c.567 0 .967-.24 1.2-.717v-2.7c-.228-.478-.624-.717-1.187-.717-.884 0-1.327.717-1.327 2.152zM366.662 14c-.084-.165-.146-.37-.184-.616-.444.495-1.022.743-1.733.743-.672 0-1.23-.195-1.675-.584a1.88 1.88 0 0 1-.66-1.473c0-.728.268-1.286.806-1.676s1.322-.586 2.342-.6h.844V9.41c0-.317-.082-.57-.247-.762s-.417-.286-.768-.286c-.31 0-.553.074-.73.222s-.26.35-.26.61h-1.834c0-.398.123-.766.368-1.104s.592-.603 1.04-.793.952-.292 1.51-.292c.846 0 1.517.214 2.012.64s.75 1.02.75 1.8v2.977c.004.652.095 1.145.273 1.48V14h-1.854zm-1.517-1.276a1.6 1.6 0 0 0 .749-.178c.23-.123.398-.286.508-.49v-1.18h-.685c-.92 0-1.407.317-1.467.952l-.006.108c0 .23.08.417.24.565s.38.222.66.222z" class="D"/><circle cx="114" cy="94" r="10" class="B C"/><path d="M117.23 98h-6.335v-1.257l3-3.187c.4-.45.713-.84.907-1.174s.3-.652.3-.952c0-.4-.104-.732-.31-.965s-.504-.355-.89-.355c-.415 0-.743.144-.984.432s-.355.658-.355 1.124h-1.84c0-.563.133-1.077.4-1.542s.652-.83 1.142-1.092 1.048-.4 1.67-.4c.952 0 1.7.228 2.215.686s.794 1.102.794 1.936c0 .457-.12.923-.356 1.397s-.643 1.026-1.22 1.657l-2.1 2.215h3.974V98z" class="D"/><circle cx="226" cy="97" r="10" class="B C"/><path d="M224.762 95.566h.978c.465 0 .8-.116 1.034-.35s.337-.542.337-.927c0-.372-.112-.662-.337-.87s-.524-.31-.914-.31c-.35 0-.645.097-.882.292s-.355.44-.355.75h-1.835c0-.482.13-.914.387-1.295s.627-.686 1.092-.9.986-.324 1.55-.324c.977 0 1.743.235 2.298.705s.83 1.11.83 1.93c0 .423-.13.813-.387 1.168s-.597.628-1.016.82c.52.186.908.465 1.162.838s.387.813.387 1.32c0 .82-.3 1.48-.9 1.974s-1.388.743-2.374.743c-.923 0-1.678-.243-2.266-.73s-.876-1.13-.876-1.93h1.834c0 .347.13.63.388.85s.583.33.964.33c.436 0 .777-.114 1.022-.343s.375-.54.375-.92c0-.923-.508-1.384-1.524-1.384h-.97v-1.435z" class="D"/><circle cx="360" cy="101" r="10" class="B C"/><path d="M362.323 101.52h1.048V103h-1.048v2h-1.834v-2h-3.8l-.082-1.155 3.853-6.087h1.853v5.763zm-3.878 0h2.044V98.26l-.12.2-1.923 3.053z" class="D"/><circle cx="476" cy="111" r="10" class="B C"/><path d="M473.17 110.455l.533-4.697h5.18v1.53h-3.675l-.23 1.986c.436-.232.9-.35 1.4-.35.88 0 1.57.273 2.07.82s.75 1.3.75 2.292c0 .596-.127 1.132-.38 1.606s-.6.835-1.08 1.098-1.025.387-1.664.387a3.62 3.62 0 0 1-1.555-.336c-.478-.23-.857-.548-1.136-.96s-.42-.878-.438-1.403h1.816c.038.385.17.686.4.902.233.21.536.317.908.317.415 0 .734-.148.96-.444s.336-.724.336-1.27c0-.525-.13-.927-.387-1.206s-.624-.42-1.098-.42c-.436 0-.8.114-1.06.343l-.178.165-1.46-.362z" class="D"/><circle cx="582" cy="109" r="10" class="B C"/><path d="M583.873 103.663v1.5h-.178c-.83.013-1.498.23-2.006.648s-.806 1-.908 1.745c.49-.5 1.11-.75 1.86-.75.804 0 1.443.288 1.917.864s.71 1.333.71 2.272c0 .6-.13 1.145-.394 1.63s-.626.866-1.104 1.137-1.01.406-1.612.406c-.974 0-1.76-.34-2.362-1.016s-.895-1.58-.895-2.7v-.66c0-1.003.19-1.888.565-2.654s.925-1.364 1.632-1.783 1.534-.637 2.47-.64h.305zm-1.8 4.627a1.45 1.45 0 0 0-.807.235 1.37 1.37 0 0 0-.533.609v.56c0 .613.12 1.094.362 1.44s.58.514 1.016.514a1.15 1.15 0 0 0 .952-.463c.245-.314.368-.718.368-1.213 0-.503-.123-.9-.368-1.22s-.576-.463-1-.463z" class="D"/><circle cx="30" cy="139" r="10" class="B C"/><path d="M31.352 143h-1.834v-7.07l-2.2.68v-1.492l3.828-1.37h.197V143z" class="D"/><path d="M38.52 135.122l66-36M236.027 96l114 3.026M573.3 113.95l-30.924 31.56-56.98-32.725M173 146a3 3 0 1 0 0-6 3 3 0 1 0 0 6zm-9-60a3 3 0 1 0 0-6 3 3 0 1 0 0 6z" class="B C"/><path d="M175.975 142.6l42.207-39.378-1.364-1.462L175 140.773a2.97 2.97 0 0 1 .965 1.836zm-5.774-.7c.25-.643.712-1.178 1.302-1.52l-49.866-41.2-1.274 1.542 49.838 41.166zM166.826 84l49.144 11.34.45-1.95-49.608-11.448A2.98 2.98 0 0 1 167 83a2.97 2.97 0 0 1-.174 1.01zm-5.637.04c-.122-.327-.2-.68-.2-1.05 0-.348.06-.683.168-.993l-38.383 8.457.43 1.953 37.974-8.367z" class="D E"/><path d="M303.368 123.5a3 3 0 1 0 0-6 3 3 0 1 0 0 6z" class="B C"/><path d="M300.53 119.53a3.01 3.01 0 0 1 1.244-1.571l-31.2-21.78-1.144 1.64 31.1 21.7z" class="D E"/><path d="M426 100a3 3 0 1 0 0-6 3 3 0 1 0 0 6zm-38 26a3 3 0 1 0 0-6 3 3 0 1 0 0 6z" class="B C"/><g class="D"><path d="M390.943 123.585L466 113l-.28-1.98-75.064 10.585c.22.417.343.892.343 1.395 0 .2-.02.396-.057.585z" class="E"/><path d="M184.42 144.828h-2.054l-.4 1.172h-1.246l2.117-5.688h1.086l2.13 5.688h-1.246l-.395-1.172zm-1.738-.95h1.422l-.715-2.13-.707 2.13zm7.828.047c0 .677-.145 1.206-.434 1.586s-.692.566-1.2.566c-.458 0-.824-.176-1.097-.527l-.05.45h-1.016v-6h1.13v2.152c.26-.304.603-.457 1.028-.457.515 0 .92.2 1.2.57s.44.9.44 1.597v.063zm-1.13-.082c0-.427-.068-.74-.203-.934s-.337-.297-.606-.297c-.36 0-.606.147-.742.442v1.668c.138.297.388.445.75.445s.604-.18.72-.54c.055-.172.082-.434.082-.785zm4.386-1.012c-.153-.02-.3-.03-.406-.03-.427 0-.707.144-.84.433V146h-1.13v-4.227h1.067l.03.504c.227-.388.54-.582.942-.582.125 0 .242.017.35.05l-.016 1.086zM195.7 146h-1.133v-4.227h1.133V146zm-1.2-5.32c0-.17.056-.3.168-.418s.27-.164.465-.164a.63.63 0 0 1 .46.164c.114.1.172.248.172.418a.56.56 0 0 1-.176.422c-.116.1-.267.164-.457.164a.65.65 0 0 1-.461-.164c-.115-.1-.172-.25-.172-.422zm4.7 2.152a3.21 3.21 0 0 0-.406-.03c-.427 0-.707.144-.84.433V146h-1.13v-4.227h1.066l.032.504c.226-.388.54-.582.94-.582.125 0 .242.017.352.05l-.016 1.086zm6.7 1.094c0 .65-.148 1.173-.445 1.566s-.693.586-1.195.586c-.427 0-.772-.148-1.035-.445v1.992h-1.13v-5.852h1.047l.04.415a1.32 1.32 0 0 1 1.07-.493c.52 0 .926.193 1.215.578s.433.917.433 1.594v.06zm-1.128-.082c0-.393-.07-.697-.2-.9a.7.7 0 0 0-.606-.32c-.354 0-.598.136-.73.407v1.73c.138.28.384.418.738.418.54 0 .8-.44.8-1.324zm3.96 2.234c-.62 0-1.125-.2-1.515-.57s-.582-.887-.582-1.52v-.1c0-.425.082-.803.246-1.137s.395-.594.695-.773a1.95 1.95 0 0 1 1.031-.274c.578 0 1.033.183 1.363.547s.5.882.5 1.55v.46h-2.7c.037.276.146.497.328.664s.418.25.7.25c.435 0 .775-.158 1.02-.473l.555.62a1.72 1.72 0 0 1-.688.563 2.27 2.27 0 0 1-.961.199zm-.13-3.47c-.224 0-.406.076-.547.227s-.226.367-.265.648h1.57v-.1c-.005-.25-.073-.443-.203-.58s-.315-.207-.555-.207zm5.07.223c-.153-.02-.3-.03-.406-.03-.427 0-.707.144-.84.433V146h-1.13v-4.227h1.067l.03.504c.227-.388.54-.582.94-.582a1.18 1.18 0 0 1 .352.051l-.016 1.086zm3.02 2c0-.138-.07-.246-.207-.324s-.355-.153-.657-.215c-1.005-.2-1.507-.638-1.507-1.28 0-.375.154-.688.464-.938s.72-.38 1.223-.38c.536 0 .965.127 1.285.38a1.2 1.2 0 0 1 .485.985h-1.13a.54.54 0 0 0-.157-.4c-.105-.105-.267-.16-.488-.16-.2 0-.337.043-.44.13s-.157.195-.157.328c0 .125.06.227.176.305s.32.142.602.2.518.117.7.187c.596.22.894.598.894 1.137 0 .386-.165.698-.496.938s-.758.355-1.28.355c-.354 0-.67-.062-.945-.187a1.56 1.56 0 0 1-.645-.52 1.22 1.22 0 0 1-.234-.715h1.07c.01.2.085.354.223.46s.323.16.554.16c.217 0 .38-.04.5-.12s.168-.2.168-.324zm3.203 1.168h-1.133v-4.227h1.133V146zm-1.2-5.32c0-.17.056-.3.168-.418s.27-.164.465-.164a.63.63 0 0 1 .46.164.55.55 0 0 1 .172.418c0 .172-.06.312-.176.422s-.267.164-.457.164a.65.65 0 0 1-.461-.164.56.56 0 0 1-.172-.422zm4.766 5.32a1.04 1.04 0 0 1-.114-.38c-.273.305-.63.457-1.066.457-.414 0-.758-.12-1.03-.36a1.16 1.16 0 0 1-.407-.907c0-.447.166-.8.497-1.03s.813-.36 1.44-.363h.52v-.242c0-.196-.05-.352-.152-.47s-.256-.176-.473-.176c-.2 0-.34.046-.45.137s-.16.216-.16.375h-1.13a1.14 1.14 0 0 1 .227-.68c.15-.2.364-.37.64-.488a2.31 2.31 0 0 1 .93-.18c.52 0 .934.132 1.238.395s.46.627.46 1.1v1.832c.003.4.06.705.168.9v.07h-1.14zm-.934-.785a1.11 1.11 0 0 0 .46-.1.73.73 0 0 0 .312-.3v-.727h-.42c-.565 0-.866.195-.903.586l-.004.066a.45.45 0 0 0 .149.348c.1.1.234.137.406.137zm3.996-3.442l.035.5c.302-.378.707-.567 1.215-.567.448 0 .78.132 1 .395s.33.656.336 1.18V146h-1.13v-2.703c0-.24-.052-.413-.156-.52s-.278-.164-.52-.164c-.318 0-.556.136-.715.407V146h-1.13v-4.227h1.063zM232.59 146a1.04 1.04 0 0 1-.114-.38c-.273.305-.628.457-1.066.457-.414 0-.758-.12-1.03-.36a1.16 1.16 0 0 1-.406-.907c0-.447.165-.8.496-1.03s.813-.36 1.44-.363h.52v-.242c0-.196-.05-.352-.153-.47s-.256-.176-.472-.176c-.2 0-.34.046-.45.137s-.16.216-.16.375h-1.13a1.14 1.14 0 0 1 .227-.68 1.48 1.48 0 0 1 .641-.488c.276-.12.585-.18.93-.18.52 0 .934.132 1.238.395s.46.627.46 1.1v1.832c.003.4.06.705.168.9v.07h-1.14zm-.934-.785a1.11 1.11 0 0 0 .46-.1.74.74 0 0 0 .313-.3v-.727h-.422c-.565 0-.866.195-.903.586l-.004.066a.45.45 0 0 0 .149.348c.1.1.234.137.406.137zm-7.937-91.386h-2.055l-.4 1.172h-1.246l2.118-5.687h1.085L225.36 55h-1.246l-.394-1.172zm-1.74-.95h1.422l-.714-2.13-.708 2.13zm5.778 1.3c.208 0 .377-.057.507-.172s.198-.267.203-.457h1.06c-.003.286-.08.55-.234.8s-.365.422-.633.555a1.98 1.98 0 0 1-.883.195c-.604 0-1.08-.2-1.43-.574s-.523-.917-.523-1.594v-.074c0-.65.173-1.17.52-1.56s.822-.582 1.426-.582c.53 0 .952.15 1.27.453s.483.7.488 1.2h-1.06c-.005-.22-.072-.396-.203-.53a.69.69 0 0 0-.515-.207c-.263 0-.462.096-.598.3s-.2.5-.2.93v.117c0 .435.066.747.2.938s.335.285.606.285zm3.7-2.934c.3-.36.675-.54 1.128-.54.917 0 1.382.533 1.395 1.598V55h-1.13v-2.676c0-.242-.052-.42-.156-.535s-.278-.176-.52-.176c-.33 0-.57.128-.718.383V55h-1.13v-6h1.13v2.234zM237.464 55a1.02 1.02 0 0 1-.113-.38c-.274.305-.63.457-1.067.457-.414 0-.757-.12-1.03-.36a1.15 1.15 0 0 1-.406-.906c0-.448.165-.792.496-1.03s.814-.36 1.44-.363h.52v-.242c0-.195-.05-.352-.152-.47s-.257-.176-.473-.176c-.2 0-.34.046-.45.137s-.16.216-.16.375h-1.13c0-.245.075-.47.226-.68s.365-.37.64-.488a2.34 2.34 0 0 1 .93-.18c.52 0 .933.13 1.238.394s.46.628.46 1.102v1.832c.002.4.058.704.168.9V55h-1.14zm-.934-.785c.167 0 .32-.036.46-.1s.245-.176.313-.3v-.727h-.422c-.565 0-.866.195-.902.586l-.004.066a.45.45 0 0 0 .148.348c.1.1.235.137.406.137zm5.332-2.383c-.153-.02-.3-.03-.406-.03-.427 0-.707.145-.84.434V55h-1.13v-4.227h1.067l.03.504c.226-.388.54-.582.94-.582.125 0 .242.017.352.05l-.016 1.086zM245.96 55h-1.132v-6h1.132v6zm2.3 0h-1.133v-4.227h1.133V55zm-1.2-5.32a.56.56 0 0 1 .168-.418c.115-.1.27-.164.465-.164s.347.055.46.164a.55.55 0 0 1 .172.418c0 .172-.058.313-.176.422s-.267.164-.457.164a.65.65 0 0 1-.461-.164.56.56 0 0 1-.172-.422zm4.606 4.152c0-.138-.07-.246-.207-.324s-.354-.152-.657-.215c-1.005-.2-1.507-.638-1.507-1.28 0-.375.155-.687.464-.937s.72-.38 1.223-.38c.537 0 .965.126 1.285.38a1.19 1.19 0 0 1 .485.984h-1.13c0-.16-.052-.294-.157-.398s-.266-.16-.488-.16c-.2 0-.337.043-.44.13a.41.41 0 0 0-.156.328c0 .125.058.227.175.305s.32.142.602.2a5.02 5.02 0 0 1 .71.188c.596.22.894.598.894 1.137 0 .385-.165.698-.496.938s-.758.355-1.28.355c-.354 0-.67-.062-.945-.187a1.56 1.56 0 0 1-.645-.52 1.22 1.22 0 0 1-.234-.715h1.07c.01.2.085.354.223.46s.323.16.554.16c.217 0 .38-.04.5-.12s.168-.2.168-.324zm3.363-4.098v1.04h.722v.828h-.722v2.1c0 .156.03.268.1.336s.174.102.343.102a1.8 1.8 0 0 0 .332-.027v.855a2.32 2.32 0 0 1-.683.102c-.792 0-1.196-.4-1.2-1.2v-2.277h-.617v-.828h.617v-1.04h1.13zM259.02 55a1.02 1.02 0 0 1-.113-.38c-.274.305-.63.457-1.067.457-.414 0-.758-.12-1.03-.36s-.406-.542-.406-.906c0-.448.165-.792.496-1.03s.814-.36 1.44-.363h.52v-.242c0-.195-.05-.352-.153-.47s-.256-.176-.472-.176c-.2 0-.34.046-.45.137s-.16.216-.16.375h-1.13a1.14 1.14 0 0 1 .227-.68c.15-.2.365-.37.64-.488a2.34 2.34 0 0 1 .93-.18c.52 0 .934.13 1.24.394s.46.628.46 1.102v1.832c.003.4.06.704.168.9V55h-1.14zm-.934-.785c.167 0 .32-.036.46-.1s.245-.176.313-.3v-.727h-.422c-.565 0-.866.195-.903.586l-.003.066a.45.45 0 0 0 .148.348c.1.1.234.137.406.137zm4.957-1.36c0-.66.147-1.184.44-1.574s.702-.586 1.215-.586a1.3 1.3 0 0 1 1.02.46V49h1.132v6h-1.02l-.055-.45a1.33 1.33 0 0 1-1.086.527 1.44 1.44 0 0 1-1.199-.586c-.3-.393-.45-.94-.45-1.637zm1.13.082c0 .396.07.7.207.9s.338.316.6.316c.35 0 .595-.147.74-.44v-1.668c-.14-.294-.385-.44-.73-.44-.544 0-.816.44-.816 1.324zm5.683 2.14c-.62 0-1.125-.2-1.516-.57s-.582-.887-.582-1.52v-.1c0-.425.082-.803.246-1.137a1.8 1.8 0 0 1 .696-.773 1.98 1.98 0 0 1 1.03-.273c.578 0 1.033.182 1.363.547s.5.882.5 1.55v.46h-2.7c.036.276.146.497.328.664s.418.25.7.25c.435 0 .775-.158 1.02-.473l.554.62c-.17.24-.398.427-.687.563s-.6.2-.96.2zm-.13-3.47a.71.71 0 0 0-.547.227c-.14.152-.226.367-.265.648h1.57v-.1c-.005-.25-.073-.443-.203-.578s-.315-.207-.555-.207zm5.9-.836l.035.488c.302-.378.707-.566 1.215-.566.448 0 .78.13 1 .394s.33.656.336 1.18V55h-1.13v-2.703c0-.24-.052-.413-.156-.52s-.278-.164-.52-.164c-.318 0-.556.135-.715.406V55h-1.13v-4.227h1.063zm3.453 2.074c0-.42.08-.793.242-1.12a1.79 1.79 0 0 1 .695-.762c.302-.18.658-.27 1.06-.27.57 0 1.035.174 1.394.523s.564.823.606 1.422l.007.3c0 .648-.18 1.17-.542 1.563s-.848.586-1.458.586-1.096-.195-1.46-.586-.543-.922-.543-1.594v-.05zm1.128.082c0 .4.076.708.227.922a.74.74 0 0 0 .648.316.75.75 0 0 0 .641-.312c.154-.2.23-.547.23-1.008 0-.393-.077-.698-.23-.914a.75.75 0 0 0-.648-.324c-.276 0-.5.108-.64.324s-.227.546-.227.996zm4.813-2.156l.035.473c.3-.367.704-.55 1.215-.55.544 0 .918.215 1.12.644.297-.43.72-.644 1.27-.644.46 0 .8.134 1.024.402s.336.667.336 1.203V55h-1.133v-2.695c0-.24-.047-.414-.14-.523s-.26-.168-.496-.168a.7.7 0 0 0-.703.484l.004 2.902h-1.13v-2.7c0-.245-.048-.422-.144-.53s-.26-.164-.493-.164a.73.73 0 0 0-.695.398V55h-1.13v-4.227h1.06zm8 4.305c-.62 0-1.125-.2-1.515-.57s-.582-.887-.582-1.52v-.1c0-.425.082-.803.246-1.137s.396-.594.695-.773.646-.273 1.03-.273c.58 0 1.033.182 1.364.547s.5.882.5 1.55v.46h-2.692c.037.276.146.497.328.664s.418.25.7.25c.435 0 .774-.158 1.02-.473l.555.62a1.71 1.71 0 0 1-.688.563c-.3.133-.6.2-.96.2zm-.128-3.47a.71.71 0 0 0-.547.227c-.14.152-.227.367-.266.648h1.57v-.1c-.005-.25-.073-.443-.203-.578s-.315-.207-.554-.207zm4.984 2.223c0-.138-.07-.246-.207-.324s-.355-.152-.657-.215c-1.005-.2-1.507-.638-1.507-1.28 0-.375.155-.687.464-.937s.72-.38 1.223-.38c.537 0 .965.126 1.285.38a1.19 1.19 0 0 1 .485.984h-1.13c0-.16-.052-.294-.157-.398s-.266-.16-.488-.16c-.2 0-.337.043-.44.13a.41.41 0 0 0-.156.328c0 .125.058.227.175.305s.32.142.602.2a5.02 5.02 0 0 1 .71.188c.596.22.894.598.894 1.137 0 .385-.165.698-.496.938s-.758.355-1.28.355c-.354 0-.67-.062-.945-.187a1.56 1.56 0 0 1-.645-.52 1.22 1.22 0 0 1-.234-.715h1.07c.01.2.085.354.223.46s.323.16.554.16c.217 0 .38-.04.5-.12s.168-.2.168-.324z"/></g><path d="M215 55a3 3 0 1 0 0-6 3 3 0 1 0 0 6z" class="B C"/><path d="M212.6 53.812a3 3 0 0 0 1.692 1.106L185 88l-1.497-1.326 29.106-32.862zm216.014 44.644l39.425 7.885.392-1.96-39.485-7.898c.03.168.044.34.044.518 0 .528-.137 1.025-.376 1.456zm-4.114 1.15a3.01 3.01 0 0 1-1.312-1.53L389.494 120.4a3.01 3.01 0 0 1 1.309 1.532L424.5 99.604zM385 123c0 .193.018.382.053.565l-19.43-14.878 1.216-1.588 18.64 14.273c-.304.47-.48 1.028-.48 1.628z" class="D E"/></svg>